<!-- <?xml version="1.0" encoding="iso-8859-1"?> -->
<!-- Generator: Adobe Illustrator 16.0.0, SVG Export Plug-In . SVG Version: 6.00 Build 0)  -->
<!-- <!DOCTYPE svg PUBLIC "-//W3C//DTD SVG 1.1//EN" "http://www.w3.org/Graphics/SVG/1.1/DTD/svg11.dtd"> -->
<svg version="1.1" xmlns="http://www.w3.org/2000/svg" 
xmlns:xlink="http://www.w3.org/1999/xlink" x="0px" y="0px" 
	 style="enable-background:new 0 0 512 512;" 
	 viewBox="0 0 512 512" 
     width="35px"
	 height="35px" 
	 fill="white"
	 xml:space="preserve">
<g id="_x35_21_x2C__power_x2C__knowledge_x2C__education_x2C__books">
	<g id="XMLID_7250_">
		<path id="XMLID_7251_" d="M335.217,88.248c0-2.573,2.086-4.66,4.659-4.66c2.574,0,4.66,2.086,4.66,4.66v60.577h4.659
			c23.126,0,41.938-18.813,41.938-41.938c0-23.125-18.813-41.938-41.938-41.938h-209.69v83.876h195.711V88.248z M181.443,116.207
			h-18.639V97.567h18.639V116.207z M209.402,116.207h-18.639V97.567h18.639V116.207z M237.361,116.207h-18.639V97.567h18.639
			V116.207z M265.319,116.207h-18.639V97.567h18.639V116.207z"/>
		<path id="XMLID_7257_" d="M99.879,432.639c1.027,8.217,8.046,14.412,16.327,14.412c8.281,0,15.3-6.195,16.327-14.412l6.353-50.824
			h-45.36L99.879,432.639z"/>
		<path id="XMLID_7258_" d="M148.825,181.443c0-2.573,2.086-4.66,4.66-4.66c2.573,0,4.66,2.086,4.66,4.66v32.619h27.958v-32.619
			c0-2.573,2.086-4.66,4.66-4.66c2.573,0,4.66,2.086,4.66,4.66v32.619h27.958v-32.619c0-2.573,2.086-4.66,4.66-4.66
			c2.573,0,4.66,2.086,4.66,4.66v32.619h177.072v-55.917h-60.578h-214.35h-13.979v55.917h27.958V181.443z"/>
		<path id="XMLID_7259_" d="M111.546,297.938h316.866v-18.639H134.846c-2.574,0-4.66-2.086-4.66-4.66
			c0-2.573,2.086-4.659,4.66-4.659h293.566V251.34H134.846c-2.574,0-4.66-2.086-4.66-4.66c0-2.574,2.086-4.66,4.66-4.66h293.566
			v-18.639h-13.979H116.207h-4.66c-20.555,0-37.278,16.723-37.278,37.279C74.268,281.215,90.991,297.938,111.546,297.938z"/>
		<polygon id="XMLID_7260_" points="46.31,344.535 46.31,372.494 88.248,372.494 144.165,372.494 367.835,372.494 423.752,372.494 
			465.69,372.494 465.69,344.535 		"/>
		<path id="XMLID_7261_" d="M379.466,432.639c1.028,8.217,8.047,14.412,16.328,14.412s15.3-6.195,16.327-14.412l6.353-50.824h-45.36
			L379.466,432.639z"/>
	</g>
</g>
<g id="Layer_1">
</g>
</svg>
